%TF.GenerationSoftware,KiCad,Pcbnew,9.0.7+1*%
%TF.CreationDate,2026-02-21T12:36:50+00:00*%
%TF.ProjectId,ZSWatch-Watch,5a535761-7463-4682-9d57-617463682e6b,1.0.0*%
%TF.SameCoordinates,Original*%
%TF.FileFunction,Paste,Top*%
%TF.FilePolarity,Positive*%
%FSLAX46Y46*%
G04 Gerber Fmt 4.6, Leading zero omitted, Abs format (unit mm)*
G04 Created by KiCad (PCBNEW 9.0.7+1) date 2026-02-21 12:36:50*
%MOMM*%
%LPD*%
G01*
G04 APERTURE LIST*
G04 Aperture macros list*
%AMRoundRect*
0 Rectangle with rounded corners*
0 $1 Rounding radius*
0 $2 $3 $4 $5 $6 $7 $8 $9 X,Y pos of 4 corners*
0 Add a 4 corners polygon primitive as box body*
4,1,4,$2,$3,$4,$5,$6,$7,$8,$9,$2,$3,0*
0 Add four circle primitives for the rounded corners*
1,1,$1+$1,$2,$3*
1,1,$1+$1,$4,$5*
1,1,$1+$1,$6,$7*
1,1,$1+$1,$8,$9*
0 Add four rect primitives between the rounded corners*
20,1,$1+$1,$2,$3,$4,$5,0*
20,1,$1+$1,$4,$5,$6,$7,0*
20,1,$1+$1,$6,$7,$8,$9,0*
20,1,$1+$1,$8,$9,$2,$3,0*%
%AMRotRect*
0 Rectangle, with rotation*
0 The origin of the aperture is its center*
0 $1 length*
0 $2 width*
0 $3 Rotation angle, in degrees counterclockwise*
0 Add horizontal line*
21,1,$1,$2,0,0,$3*%
%AMOutline4P*
0 Free polygon, 4 corners , with rotation*
0 The origin of the aperture is its center*
0 number of corners: always 4*
0 $1 to $8 corner X, Y*
0 $9 Rotation angle, in degrees counterclockwise*
0 create outline with 4 corners*
4,1,4,$1,$2,$3,$4,$5,$6,$7,$8,$1,$2,$9*%
G04 Aperture macros list end*
%ADD10C,0.010000*%
%ADD11R,0.450000X0.270000*%
%ADD12R,0.450000X0.170000*%
%ADD13R,0.170000X0.450000*%
%ADD14R,0.450000X0.150000*%
%ADD15RoundRect,0.079500X-0.100500X0.079500X-0.100500X-0.079500X0.100500X-0.079500X0.100500X0.079500X0*%
%ADD16RotRect,0.750000X1.138000X145.000000*%
%ADD17Outline4P,-0.375000X-0.350000X0.375000X-0.350000X0.225000X0.350000X-0.225000X0.350000X325.000000*%
%ADD18RotRect,0.600000X1.800000X145.000000*%
%ADD19RotRect,1.025000X1.300000X325.000000*%
%ADD20RoundRect,0.140000X0.140000X0.170000X-0.140000X0.170000X-0.140000X-0.170000X0.140000X-0.170000X0*%
%ADD21RotRect,0.750000X1.138000X325.000000*%
%ADD22Outline4P,-0.375000X-0.350000X0.375000X-0.350000X0.225000X0.350000X-0.225000X0.350000X145.000000*%
%ADD23RotRect,0.600000X1.800000X325.000000*%
%ADD24RotRect,1.025000X1.300000X145.000000*%
%ADD25RoundRect,0.079500X0.079500X0.100500X-0.079500X0.100500X-0.079500X-0.100500X0.079500X-0.100500X0*%
%ADD26RoundRect,0.079500X-0.079500X-0.100500X0.079500X-0.100500X0.079500X0.100500X-0.079500X0.100500X0*%
%ADD27RoundRect,0.079500X0.100500X-0.079500X0.100500X0.079500X-0.100500X0.079500X-0.100500X-0.079500X0*%
%ADD28R,0.450000X0.210000*%
%ADD29R,0.250000X0.475000*%
%ADD30R,0.475000X0.250000*%
%ADD31RotRect,0.750000X1.138000X35.000000*%
%ADD32Outline4P,-0.375000X-0.350000X0.375000X-0.350000X0.225000X0.350000X-0.225000X0.350000X215.000000*%
%ADD33RotRect,0.600000X1.800000X35.000000*%
%ADD34RotRect,1.025000X1.300000X215.000000*%
%ADD35RoundRect,0.079500X-0.014849X0.127279X-0.127279X0.014849X0.014849X-0.127279X0.127279X-0.014849X0*%
%ADD36R,0.370000X0.300000*%
%ADD37R,0.300000X0.370000*%
%ADD38RoundRect,0.150000X0.625000X-0.150000X0.625000X0.150000X-0.625000X0.150000X-0.625000X-0.150000X0*%
%ADD39RoundRect,0.250000X0.650000X-0.350000X0.650000X0.350000X-0.650000X0.350000X-0.650000X-0.350000X0*%
%ADD40RoundRect,0.093750X-0.093750X0.156250X-0.093750X-0.156250X0.093750X-0.156250X0.093750X0.156250X0*%
%ADD41RoundRect,0.075000X-0.075000X0.250000X-0.075000X-0.250000X0.075000X-0.250000X0.075000X0.250000X0*%
%ADD42RoundRect,0.150000X0.150000X0.275000X-0.150000X0.275000X-0.150000X-0.275000X0.150000X-0.275000X0*%
%ADD43RoundRect,0.175000X0.175000X0.225000X-0.175000X0.225000X-0.175000X-0.225000X0.175000X-0.225000X0*%
%ADD44RotRect,0.750000X1.138000X215.000000*%
%ADD45Outline4P,-0.375000X-0.350000X0.375000X-0.350000X0.225000X0.350000X-0.225000X0.350000X35.000000*%
%ADD46RotRect,0.600000X1.800000X215.000000*%
%ADD47RotRect,1.025000X1.300000X35.000000*%
%ADD48RotRect,0.450000X0.950000X135.000000*%
%ADD49R,0.325000X0.300000*%
%ADD50R,0.300000X0.325000*%
%ADD51RoundRect,0.075000X-0.309359X-0.415425X0.415425X0.309359X0.309359X0.415425X-0.415425X-0.309359X0*%
%ADD52R,0.600000X0.600000*%
%ADD53RoundRect,0.140000X0.170000X-0.140000X0.170000X0.140000X-0.170000X0.140000X-0.170000X-0.140000X0*%
%ADD54R,0.300000X0.700000*%
%ADD55RoundRect,0.079500X0.014849X-0.127279X0.127279X-0.014849X-0.014849X0.127279X-0.127279X0.014849X0*%
G04 APERTURE END LIST*
D10*
%TO.C,MK501*%
X198820801Y-127939861D02*
X198820801Y-128081283D01*
X197335877Y-129566207D01*
X197194455Y-129566207D01*
X197035356Y-129407108D01*
X198661702Y-127780762D01*
X198820801Y-127939861D01*
G36*
X198820801Y-127939861D02*
G01*
X198820801Y-128081283D01*
X197335877Y-129566207D01*
X197194455Y-129566207D01*
X197035356Y-129407108D01*
X198661702Y-127780762D01*
X198820801Y-127939861D01*
G37*
X198113694Y-131051131D02*
X198113694Y-131192553D01*
X197954595Y-131351652D01*
X197035356Y-130432413D01*
X197194455Y-130273314D01*
X197335877Y-130273314D01*
X198113694Y-131051131D01*
G36*
X198113694Y-131051131D02*
G01*
X198113694Y-131192553D01*
X197954595Y-131351652D01*
X197035356Y-130432413D01*
X197194455Y-130273314D01*
X197335877Y-130273314D01*
X198113694Y-131051131D01*
G37*
X200606246Y-129725306D02*
X198979900Y-131351652D01*
X198820801Y-131192553D01*
X198820801Y-131051131D01*
X200305725Y-129566207D01*
X200447147Y-129566207D01*
X200606246Y-129725306D01*
G36*
X200606246Y-129725306D02*
G01*
X198979900Y-131351652D01*
X198820801Y-131192553D01*
X198820801Y-131051131D01*
X200305725Y-129566207D01*
X200447147Y-129566207D01*
X200606246Y-129725306D01*
G37*
X200606246Y-128700001D02*
X200447147Y-128859100D01*
X200305725Y-128859100D01*
X199527908Y-128081283D01*
X199527908Y-127939861D01*
X199687007Y-127780762D01*
X200606246Y-128700001D01*
G36*
X200606246Y-128700001D02*
G01*
X200447147Y-128859100D01*
X200305725Y-128859100D01*
X199527908Y-128081283D01*
X199527908Y-127939861D01*
X199687007Y-127780762D01*
X200606246Y-128700001D01*
G37*
%TD*%
D11*
%TO.C,IC604*%
X203200000Y-132040000D03*
D12*
X203200000Y-131590000D03*
X203200000Y-131190000D03*
X203200000Y-130790000D03*
X203200001Y-130390000D03*
D13*
X202450000Y-130290000D03*
D14*
X201699999Y-130390000D03*
D12*
X201700000Y-130790000D03*
X201700000Y-131190000D03*
X201700000Y-131590000D03*
X201699999Y-131990000D03*
D13*
X202450000Y-132090000D03*
%TD*%
D15*
%TO.C,C603*%
X203700000Y-132755000D03*
X203700000Y-133445000D03*
%TD*%
D16*
%TO.C,S501*%
X216946914Y-126483093D03*
D17*
X217474031Y-125730292D03*
X215467108Y-124325030D03*
D16*
X214939991Y-125077830D03*
D18*
X216133306Y-125509322D03*
D19*
X218559492Y-125879953D03*
X214955223Y-123356217D03*
%TD*%
D15*
%TO.C,C504*%
X210507497Y-135717499D03*
X210507497Y-136407499D03*
%TD*%
D20*
%TO.C,C403*%
X192805000Y-148675000D03*
X191845000Y-148675000D03*
%TD*%
D21*
%TO.C,S504*%
X197162487Y-150369323D03*
D22*
X196635370Y-151122124D03*
X198642293Y-152527386D03*
D21*
X199169410Y-151774586D03*
D23*
X197976095Y-151343094D03*
D24*
X195549909Y-150972463D03*
X199154178Y-153496199D03*
%TD*%
D25*
%TO.C,C604*%
X201575000Y-132790000D03*
X200885000Y-132790000D03*
%TD*%
D15*
%TO.C,C507*%
X213976079Y-131962498D03*
X213976079Y-132652498D03*
%TD*%
D26*
%TO.C,R613*%
X202285000Y-132790000D03*
X202975000Y-132790000D03*
%TD*%
D27*
%TO.C,C503*%
X210462496Y-134582499D03*
X210462496Y-133892499D03*
%TD*%
D26*
%TO.C,C509*%
X213937501Y-126857500D03*
X214627501Y-126857500D03*
%TD*%
D15*
%TO.C,C508*%
X213100001Y-127330001D03*
X213100001Y-128020001D03*
%TD*%
D28*
%TO.C,X608*%
X200100000Y-140700000D03*
X200100000Y-140300000D03*
X200100000Y-139900000D03*
X200100000Y-139500000D03*
X200100000Y-139100000D03*
X200100000Y-138700000D03*
X200100000Y-138300000D03*
X200100000Y-137900000D03*
X200100000Y-137500000D03*
X200100000Y-137100000D03*
X200100000Y-136700000D03*
X200100000Y-136300000D03*
X197900000Y-136300000D03*
X197900000Y-136700000D03*
X197900000Y-137100000D03*
X197900000Y-137500000D03*
X197900000Y-137900000D03*
X197900000Y-138300000D03*
X197900000Y-138700000D03*
X197900000Y-139100000D03*
X197900000Y-139500000D03*
X197900000Y-139900000D03*
X197900000Y-140300000D03*
X197900000Y-140700000D03*
%TD*%
D29*
%TO.C,IC502*%
X212850000Y-134037499D03*
X212350000Y-134037500D03*
X211850000Y-134037500D03*
X211350000Y-134037499D03*
D30*
X211187500Y-134700001D03*
X211187500Y-135200000D03*
X211187500Y-135699999D03*
D29*
X211350000Y-136362501D03*
X211850000Y-136362500D03*
X212350000Y-136362500D03*
X212850000Y-136362501D03*
D30*
X213012500Y-135699999D03*
X213012500Y-135200000D03*
X213012500Y-134700001D03*
%TD*%
D31*
%TO.C,S502*%
X214839991Y-151722170D03*
D32*
X215367108Y-152474970D03*
D31*
X216846914Y-150316907D03*
D32*
X217374031Y-151069708D03*
D33*
X216033306Y-151290678D03*
D34*
X214855223Y-153443783D03*
X218459492Y-150920047D03*
%TD*%
D25*
%TO.C,C505*%
X213125000Y-130667001D03*
X212435000Y-130667001D03*
%TD*%
D35*
%TO.C,C502*%
X197919239Y-127780761D03*
X197431335Y-128268665D03*
%TD*%
D36*
%TO.C,IC504*%
X213737501Y-127987500D03*
X213737501Y-128487500D03*
D37*
X214000002Y-129000000D03*
X214500001Y-129000000D03*
X215000000Y-129000000D03*
D36*
X215262501Y-128487500D03*
X215262501Y-127987500D03*
D37*
X215000000Y-127475000D03*
X214500001Y-127475000D03*
X214000002Y-127475000D03*
%TD*%
D38*
%TO.C,X402*%
X190900000Y-146500000D03*
X190900000Y-145500000D03*
D39*
X194775000Y-147800000D03*
X194775000Y-144200000D03*
%TD*%
D40*
%TO.C,IC602*%
X207575000Y-130500000D03*
D41*
X207037500Y-130425000D03*
D40*
X206500000Y-130500000D03*
X206500000Y-132200000D03*
D41*
X207037500Y-132275000D03*
D40*
X207575000Y-132200000D03*
%TD*%
D42*
%TO.C,X509*%
X194550000Y-142675000D03*
X193350000Y-142675000D03*
D43*
X195700000Y-138900000D03*
X192200000Y-138900000D03*
%TD*%
D44*
%TO.C,S503*%
X199193315Y-125268508D03*
D45*
X198666198Y-124515708D03*
D44*
X197186392Y-126673771D03*
D45*
X196659275Y-125920970D03*
D46*
X198000000Y-125700000D03*
D47*
X199178083Y-123546895D03*
X195573814Y-126070631D03*
%TD*%
D48*
%TO.C,MK501*%
X199598618Y-129389430D03*
X198644024Y-130344024D03*
X198042984Y-129742984D03*
X198997578Y-128788390D03*
%TD*%
D49*
%TO.C,IC503*%
X213367499Y-132900000D03*
X213367499Y-132400000D03*
X213367499Y-131900000D03*
X213367499Y-131400000D03*
D50*
X212854999Y-131387500D03*
X212354999Y-131387500D03*
D49*
X211842499Y-131400000D03*
X211842499Y-131900000D03*
X211842499Y-132400000D03*
X211842499Y-132900000D03*
D50*
X212354999Y-132912500D03*
X212854999Y-132912500D03*
%TD*%
D51*
%TO.C,IC501*%
X219130500Y-127730500D03*
X219590119Y-128190120D03*
X220049739Y-128649739D03*
X221163432Y-127536046D03*
X220703813Y-127076426D03*
X220244193Y-126616807D03*
%TD*%
D52*
%TO.C,M601*%
X202600000Y-143200000D03*
X203700000Y-143200000D03*
X204800000Y-143200000D03*
X205900000Y-143200000D03*
X207000000Y-143200000D03*
X208100000Y-143200000D03*
X209200000Y-143200000D03*
X210300000Y-143200000D03*
X211400000Y-143200000D03*
X202600000Y-144300000D03*
X203700000Y-144300000D03*
X204800000Y-144300000D03*
X205900000Y-144300000D03*
X207000000Y-144300000D03*
X208100000Y-144300000D03*
X209200000Y-144300000D03*
X210300000Y-144300000D03*
X211400000Y-144300000D03*
X202600000Y-145400000D03*
X203700000Y-145400001D03*
X205900000Y-145400001D03*
X207000000Y-145400000D03*
X208100000Y-145400001D03*
X210300000Y-145400001D03*
X211400000Y-145400000D03*
X202600000Y-146500000D03*
X203700000Y-146500000D03*
X204800000Y-146500001D03*
X209200000Y-146500001D03*
X210300000Y-146500000D03*
X211400000Y-146500000D03*
X202600000Y-147600000D03*
X203700001Y-147600000D03*
X204800000Y-147600000D03*
X206450000Y-147600000D03*
X207550000Y-147600000D03*
X209200000Y-147600000D03*
X210299999Y-147600000D03*
X211400000Y-147600000D03*
X202600000Y-148700000D03*
X203700000Y-148700000D03*
X204800001Y-148700000D03*
X206450000Y-148700000D03*
X207550000Y-148700000D03*
X209199999Y-148700000D03*
X210300000Y-148700000D03*
X211400000Y-148700000D03*
X202600000Y-149800000D03*
X203700001Y-149800000D03*
X204800000Y-149800000D03*
X206450000Y-149800000D03*
X207550000Y-149800000D03*
X209200000Y-149800000D03*
X210299999Y-149800000D03*
X211400000Y-149800000D03*
X202600000Y-150900000D03*
X203700000Y-150900000D03*
X204800001Y-150900000D03*
X209199999Y-150900000D03*
X210300000Y-150900000D03*
X211400000Y-150900000D03*
X202600000Y-152000000D03*
X203700001Y-152000000D03*
X204800000Y-152000000D03*
X206450000Y-152000000D03*
X207550000Y-152000000D03*
X209200000Y-152000000D03*
X210299999Y-152000000D03*
X211400000Y-152000000D03*
X202600000Y-153100000D03*
X203700000Y-153100000D03*
X204800000Y-153100000D03*
X207000000Y-153100000D03*
X209200000Y-153100000D03*
X210300000Y-153100000D03*
X211400000Y-153100000D03*
X202600000Y-154600000D03*
X211400000Y-154600000D03*
X202600000Y-156100000D03*
X203700000Y-156100000D03*
X210300000Y-156100000D03*
X211400000Y-156100000D03*
%TD*%
D53*
%TO.C,C506*%
X211054999Y-132667500D03*
X211054999Y-131707500D03*
%TD*%
D54*
%TO.C,X603*%
X209750000Y-128920000D03*
X209250000Y-128920000D03*
X208750000Y-128920000D03*
X208250000Y-128920001D03*
X207750000Y-128920000D03*
X207250000Y-128920000D03*
X206750000Y-128920000D03*
X206250000Y-128920000D03*
X205750000Y-128920001D03*
X205250000Y-128920000D03*
X204750000Y-128920000D03*
X204250000Y-128920000D03*
X204500001Y-127220000D03*
X205000000Y-127220000D03*
X205500000Y-127220000D03*
X206000000Y-127220000D03*
X206500000Y-127220000D03*
X207000000Y-127220001D03*
X207500000Y-127220000D03*
X208000000Y-127220000D03*
X208500000Y-127220000D03*
X209000000Y-127220000D03*
X209499999Y-127220000D03*
X210000000Y-127220000D03*
%TD*%
D55*
%TO.C,C501*%
X220990191Y-129123500D03*
X221478095Y-128635596D03*
%TD*%
M02*
