M48
; DRILL file {KiCad 9.0.7+1} date 2026-02-20T19:27:44+0000
; FORMAT={-:-/ absolute / metric / decimal}
; #@! TF.CreationDate,2026-02-20T19:27:44+00:00
; #@! TF.GenerationSoftware,Kicad,Pcbnew,9.0.7+1
; #@! TF.FileFunction,Plated,1,4,PTH
FMAT,2
METRIC
; #@! TA.AperFunction,Plated,PTH,ViaDrill
T1C0.250
; #@! TA.AperFunction,Plated,PTH,ComponentDrill
T2C0.500
; #@! TA.AperFunction,Plated,PTH,ComponentDrill
T3C0.800
%
G90
G05
T1
X189.5Y-145.5
X190.3Y-140.1
X190.3Y-147.6
X191.845Y-149.275
X192.805Y-149.295
X194.0Y-151.3
X194.2Y-140.4
X194.23Y-145.23
X194.52Y-146.8
X194.8Y-146.0
X195.2Y-141.6
X195.2Y-143.2
X195.9Y-141.0
X196.6Y-127.2
X196.6Y-152.1
X197.0Y-128.7
X197.288Y-131.099
X197.3Y-137.5
X197.3Y-140.7
X197.3Y-144.7
X198.025Y-153.0
X198.4Y-135.9
X198.5Y-127.2
X198.5Y-132.2
X198.5Y-139.0
X198.8Y-142.6
X199.042Y-139.563
X199.4Y-140.1
X199.4Y-142.9
X199.4Y-148.1
X199.8Y-124.7
X200.0Y-130.7
X200.2Y-142.5
X200.3Y-147.6
X200.423Y-127.964
X200.5Y-151.035
X200.525Y-151.675
X200.8Y-136.675
X200.8Y-148.4
X200.91Y-133.3
X201.1Y-129.5
X201.1Y-141.801
X201.55Y-133.29
X201.997Y-148.075
X202.0Y-143.7
X202.0Y-144.8
X202.0Y-145.9
X202.0Y-150.4
X202.31Y-133.9
X202.45Y-129.6
X202.6Y-155.3
X202.95Y-133.29
X203.1Y-138.1
X203.1Y-143.7
X203.147Y-148.147
X203.153Y-151.447
X203.5Y-136.5
X203.7Y-134.0
X203.7Y-139.9
X203.7Y-140.8
X204.25Y-151.455
X204.75Y-124.5
X204.75Y-128.1
X204.8Y-145.7
X205.298Y-124.8
X205.298Y-127.916
X205.353Y-144.847
X205.4Y-136.4
X205.5Y-149.5
X205.5Y-152.0
X205.9Y-146.2
X205.901Y-135.6
X206.0Y-126.6
X206.0Y-129.7
X206.0Y-153.1
X206.401Y-125.101
X206.75Y-128.251
X207.0Y-133.7
X207.0Y-147.6
X207.037Y-129.8
X207.037Y-131.3
X207.4Y-125.8
X207.501Y-127.799
X207.555Y-144.85
X207.575Y-132.8
X207.6Y-124.6
X208.0Y-129.7
X208.0Y-153.1
X208.2Y-127.9
X208.653Y-144.847
X208.7Y-148.2
X208.71Y-138.49
X208.8Y-128.1
X209.0Y-137.7
X209.0Y-139.8
X209.0Y-141.6
X209.1Y-131.3
X209.1Y-142.4
X209.6Y-139.0
X209.7Y-144.9
X209.7Y-145.9
X209.7Y-147.1
X209.7Y-151.5
X209.8Y-130.7
X209.8Y-148.2
X210.049Y-134.861
X210.433Y-132.667
X210.462Y-133.292
X210.507Y-135.207
X210.507Y-136.982
X210.547Y-131.2
X210.6Y-137.7
X210.8Y-144.9
X211.4Y-130.958
X211.4Y-142.4
X211.4Y-155.4
X211.402Y-133.4
X211.85Y-135.75
X211.98Y-130.667
X212.0Y-143.2
X212.0Y-144.3
X212.1Y-148.3
X212.5Y-127.355
X212.5Y-127.995
X212.85Y-133.425
X212.875Y-147.6
X213.186Y-128.575
X213.3Y-147.0
X213.403Y-129.108
X213.8Y-133.4
X213.8Y-135.2
X213.8Y-148.6
X213.963Y-126.362
X214.0Y-152.3
X214.1Y-124.8
X214.3Y-131.4
X214.3Y-134.0
X214.5Y-147.4
X214.525Y-140.2
X214.63Y-145.7
X214.8Y-131.987
X214.8Y-132.634
X214.9Y-143.8
X215.2Y-126.857
X215.2Y-136.9
X215.8Y-127.2
X216.01Y-135.8
X216.1Y-128.8
X216.1Y-133.7
X216.65Y-135.8
X217.1Y-148.7
X217.175Y-147.925
X217.7Y-127.0
X217.7Y-149.8
X217.75Y-130.788
X217.892Y-140.701
X217.892Y-141.208
X218.45Y-130.807
X218.6Y-142.4
X219.161Y-132.41
X219.161Y-145.18
X219.927Y-126.3
X219.95Y-132.3
X220.1Y-130.3
X220.45Y-139.0
X221.627Y-129.387
X221.885Y-130.097
X221.885Y-130.697
X221.941Y-128.172
X222.0Y-141.5
X222.1Y-139.1
X222.652Y-138.2
X222.7Y-132.608
X223.211Y-140.294
X223.211Y-139.659
X223.3Y-136.45
X223.3Y-137.1
X223.368Y-135.45
X223.4Y-133.25
X223.92Y-135.0
X224.161Y-132.839
X225.425Y-136.5
T3
X195.719Y-150.862
X195.743Y-126.181
X199.2Y-153.3
X199.224Y-123.743
X214.809Y-153.248
X214.909Y-123.552
X218.291Y-150.81
X218.391Y-125.99
T2
G00X202.51Y-121.36
M15
G01X202.51Y-120.76
M16
G05
G00X202.87Y-127.31
M15
G01X202.87Y-126.71
M16
G05
G00X211.13Y-127.31
M15
G01X211.13Y-126.71
M16
G05
G00X211.49Y-121.36
M15
G01X211.49Y-120.76
M16
G05
M30
