%TF.GenerationSoftware,KiCad,Pcbnew,9.0.7+1*%
%TF.CreationDate,2026-09-04T19:31:03+00:00*%
%TF.ProjectId,ZSWatch-Watch,5a535761-7463-4682-9d57-617463682e6b,1.0.0+ (Unreleased)*%
%TF.SameCoordinates,Original*%
%TF.FileFunction,Profile,NP*%
%FSLAX46Y46*%
G04 Gerber Fmt 4.6, Leading zero omitted, Abs format (unit mm)*
G04 Created by KiCad (PCBNEW 9.0.7+1) date 2026-09-04 19:31:03*
%MOMM*%
%LPD*%
G01*
G04 APERTURE LIST*
%TA.AperFunction,Profile*%
%ADD10C,0.200000*%
%TD*%
G04 APERTURE END LIST*
D10*
X185005263Y-138299996D02*
X185005264Y-149299897D01*
X185005263Y-138299996D02*
G75*
G02*
X185999236Y-137300081I999937J-4D01*
G01*
X186005433Y-150300045D02*
G75*
G02*
X185005255Y-149299897I-33J1000145D01*
G01*
X186005433Y-150300045D02*
X189574490Y-150300045D01*
X189574488Y-137300046D02*
X185999236Y-137300044D01*
X189574490Y-150300045D02*
X191621133Y-150300044D01*
X191200000Y-146400000D02*
G75*
G02*
X189100000Y-146400000I-1050000J0D01*
G01*
X189100000Y-146400000D02*
G75*
G02*
X191200000Y-146400000I1050000J0D01*
G01*
X191621133Y-150300044D02*
G75*
G02*
X192388917Y-150659336I67J-999856D01*
G01*
X192486468Y-137300046D02*
X189574488Y-137300046D01*
X192643060Y-127046246D02*
G75*
G02*
X192440238Y-126270944I187940J463346D01*
G01*
X192643060Y-127046246D02*
G75*
G02*
X192486465Y-137300039I-2067740J-5096514D01*
G01*
X192825043Y-125809016D02*
X192440244Y-126270949D01*
X193674956Y-124921085D02*
X192825043Y-125809016D01*
X193674956Y-124921085D02*
G75*
G02*
X194295974Y-124952374I297844J-267015D01*
G01*
X193693120Y-152070700D02*
G75*
G02*
X192388884Y-150659363I13281480J13581900D01*
G01*
X194300425Y-152014175D02*
G75*
G02*
X193693128Y-152070692I-327625J229375D01*
G01*
X194300425Y-152014175D02*
X194339875Y-151957833D01*
X194336327Y-125009911D02*
X194296016Y-124952343D01*
X194339875Y-151957833D02*
G75*
G02*
X194902821Y-151863362I327925J-229567D01*
G01*
X194897059Y-125113450D02*
G75*
G02*
X194336287Y-125009938I-229459J327650D01*
G01*
X194902805Y-151863384D02*
X198542299Y-154411786D01*
X198542237Y-122561059D02*
X194897059Y-125113450D01*
X198542299Y-154411786D02*
G75*
G02*
X198638626Y-154971713I-229399J-327714D01*
G01*
X198601071Y-121947505D02*
X198640487Y-122003794D01*
X198601071Y-121947505D02*
G75*
G02*
X198755566Y-121357349I327729J229505D01*
G01*
X198638610Y-154971701D02*
X198599726Y-155027229D01*
X198640487Y-122003794D02*
G75*
G02*
X198542226Y-122561043I-327687J-229506D01*
G01*
X198755566Y-121357349D02*
G75*
G02*
X215198838Y-121357351I8221634J-17129051D01*
G01*
X198755568Y-155615460D02*
G75*
G02*
X198599687Y-155027202I173132J360660D01*
G01*
X202647098Y-156986401D02*
G75*
G02*
X198755564Y-155615468I4329902J18499601D01*
G01*
X202647098Y-156986401D02*
X211307306Y-156986401D01*
X208050000Y-121500000D02*
G75*
G02*
X205950000Y-121500000I-1050000J0D01*
G01*
X205950000Y-121500000D02*
G75*
G02*
X208050000Y-121500000I1050000J0D01*
G01*
X215198840Y-121357348D02*
G75*
G02*
X215353451Y-121947282I-172940J-360552D01*
G01*
X215198847Y-155615458D02*
G75*
G02*
X211307306Y-156986403I-8221447J17128558D01*
G01*
X215313892Y-154968968D02*
G75*
G02*
X215412155Y-154411776I327708J229468D01*
G01*
X215316888Y-121999553D02*
X215353478Y-121947301D01*
X215353376Y-155025357D02*
G75*
G02*
X215198826Y-155615415I-327676J-229443D01*
G01*
X215353376Y-155025357D02*
X215313892Y-154968968D01*
X215412002Y-122560953D02*
G75*
G02*
X215316853Y-121999528I229398J327653D01*
G01*
X215412144Y-154411760D02*
X219057301Y-151859397D01*
X219050894Y-125108931D02*
X215412002Y-122560953D01*
X219057301Y-151859397D02*
G75*
G02*
X219616427Y-151960620I229399J-327703D01*
G01*
X219614448Y-125015098D02*
G75*
G02*
X219050855Y-125108985I-327848J229498D01*
G01*
X219616465Y-151960594D02*
X219654102Y-152014292D01*
X219654042Y-124958552D02*
X219614448Y-125015098D01*
X219654042Y-124958552D02*
G75*
G02*
X220261313Y-124902146I327558J-229348D01*
G01*
X220261292Y-152070708D02*
G75*
G02*
X219654040Y-152014336I-279692J286008D01*
G01*
X220261318Y-124902140D02*
G75*
G02*
X220261291Y-152070707I-13284118J-13584270D01*
G01*
M02*
